<svg id="visual" viewBox="0 0 900 600" width="900" height="600" xmlns="http://www.w3.org/2000/svg" xmlns:xlink="http://www.w3.org/1999/xlink" version="1.1"><path d="M0 397L16.7 402.7C33.3 408.3 66.7 419.7 100 422.5C133.3 425.3 166.7 419.7 200 419.8C233.3 420 266.7 426 300 429.7C333.3 433.3 366.7 434.7 400 430C433.3 425.3 466.7 414.7 500 414C533.3 413.3 566.7 422.7 600 428.3C633.3 434 666.7 436 700 425.5C733.3 415 766.7 392 800 385.2C833.3 378.3 866.7 387.7 883.3 392.3L900 397L900 601L883.3 601C866.7 601 833.3 601 800 601C766.7 601 733.3 601 700 601C666.7 601 633.3 601 600 601C566.7 601 533.3 601 500 601C466.7 601 433.3 601 400 601C366.7 601 333.3 601 300 601C266.7 601 233.3 601 200 601C166.7 601 133.3 601 100 601C66.7 601 33.3 601 16.7 601L0 601Z" fill="#99dad8"></path><path d="M0 428L16.7 424.8C33.3 421.7 66.7 415.3 100 419.8C133.3 424.3 166.7 439.7 200 448.3C233.3 457 266.7 459 300 453.2C333.3 447.3 366.7 433.7 400 426.5C433.3 419.3 466.7 418.7 500 424.5C533.3 430.3 566.7 442.7 600 447.2C633.3 451.7 666.7 448.3 700 449.7C733.3 451 766.7 457 800 460.2C833.3 463.3 866.7 463.7 883.3 463.8L900 464L900 601L883.3 601C866.7 601 833.3 601 800 601C766.7 601 733.3 601 700 601C666.7 601 633.3 601 600 601C566.7 601 533.3 601 500 601C466.7 601 433.3 601 400 601C366.7 601 333.3 601 300 601C266.7 601 233.3 601 200 601C166.7 601 133.3 601 100 601C66.7 601 33.3 601 16.7 601L0 601Z" fill="#89d0da"></path><path d="M0 489L16.7 484.8C33.3 480.7 66.7 472.3 100 471.7C133.3 471 166.7 478 200 478.8C233.3 479.7 266.7 474.3 300 471.2C333.3 468 366.7 467 400 470.7C433.3 474.3 466.7 482.7 500 483.5C533.3 484.3 566.7 477.7 600 478.3C633.3 479 666.7 487 700 483.8C733.3 480.7 766.7 466.3 800 464C833.3 461.7 866.7 471.3 883.3 476.2L900 481L900 601L883.3 601C866.7 601 833.3 601 800 601C766.7 601 733.3 601 700 601C666.7 601 633.3 601 600 601C566.7 601 533.3 601 500 601C466.7 601 433.3 601 400 601C366.7 601 333.3 601 300 601C266.7 601 233.3 601 200 601C166.7 601 133.3 601 100 601C66.7 601 33.3 601 16.7 601L0 601Z" fill="#7dc6dc"></path><path d="M0 487L16.7 491C33.3 495 66.7 503 100 506.2C133.3 509.3 166.7 507.7 200 503.8C233.3 500 266.7 494 300 492.7C333.3 491.3 366.7 494.7 400 498.2C433.3 501.7 466.7 505.3 500 509.2C533.3 513 566.7 517 600 515.3C633.3 513.7 666.7 506.3 700 507.2C733.3 508 766.7 517 800 520.3C833.3 523.7 866.7 521.3 883.3 520.2L900 519L900 601L883.3 601C866.7 601 833.3 601 800 601C766.7 601 733.3 601 700 601C666.7 601 633.3 601 600 601C566.7 601 533.3 601 500 601C466.7 601 433.3 601 400 601C366.7 601 333.3 601 300 601C266.7 601 233.3 601 200 601C166.7 601 133.3 601 100 601C66.7 601 33.3 601 16.7 601L0 601Z" fill="#78bbdd"></path><path d="M0 568L16.7 567.2C33.3 566.3 66.7 564.7 100 560.3C133.3 556 166.7 549 200 546C233.3 543 266.7 544 300 543.3C333.3 542.7 366.7 540.3 400 540C433.3 539.7 466.7 541.3 500 541C533.3 540.7 566.7 538.3 600 536.3C633.3 534.3 666.7 532.7 700 536C733.3 539.3 766.7 547.7 800 548C833.3 548.3 866.7 540.7 883.3 536.8L900 533L900 601L883.3 601C866.7 601 833.3 601 800 601C766.7 601 733.3 601 700 601C666.7 601 633.3 601 600 601C566.7 601 533.3 601 500 601C466.7 601 433.3 601 400 601C366.7 601 333.3 601 300 601C266.7 601 233.3 601 200 601C166.7 601 133.3 601 100 601C66.7 601 33.3 601 16.7 601L0 601Z" fill="#79afdb"></path></svg>